# Blender v2.82 (sub 7) OBJ File: 'Sofa_O1model.blend'
# www.blender.org
mtllib Sofa_O1model.mtl
o Cube.001
v -0.754354 0.666558 0.245428
v -0.754354 0.659126 0.316937
v -0.504354 0.659126 0.316937
v -0.504354 0.666558 0.245428
v -0.754354 0.500000 0.151950
v -0.754354 0.500000 0.316937
v -0.754354 0.250000 0.221298
v -0.754354 0.250000 0.316937
v -0.754354 -0.000000 0.151950
v -0.754354 -0.000000 0.316937
v -0.754354 0.000000 -0.098050
v -0.754354 0.250000 -0.098050
v -0.754354 0.000000 -0.348050
v -0.754354 0.212891 -0.348050
v -0.504354 0.500000 0.151950
v -0.254354 0.500000 0.151950
v -0.254354 0.666558 0.245428
v -0.004354 0.500000 0.151950
v -0.004354 0.666558 0.245428
v 0.245646 0.500000 0.151950
v 0.245646 0.666558 0.245428
v 0.495646 0.500000 0.151950
v 0.495646 0.666558 0.245428
v 0.745646 0.500000 0.151950
v 0.745646 0.666558 0.245428
v -0.504354 0.250000 0.221298
v -0.254354 0.250000 0.221298
v -0.004354 0.250000 0.221298
v 0.245646 0.250000 0.221298
v 0.495646 0.250000 0.221298
v 0.745646 0.250000 0.221298
v -0.504354 0.250000 -0.098050
v -0.254354 0.250000 -0.098050
v -0.004354 0.250000 -0.098050
v 0.245646 0.250000 -0.098050
v 0.495646 0.250000 -0.098050
v 0.745646 0.250000 -0.098050
v -0.504354 0.212891 -0.348050
v -0.254354 0.212891 -0.348050
v -0.004354 0.212891 -0.348050
v 0.245646 0.212891 -0.348050
v 0.495646 0.212891 -0.348050
v 0.745646 0.212891 -0.348050
v 0.495646 0.000000 -0.348050
v 0.245646 0.000000 -0.348050
v 0.745646 0.000000 -0.348050
v -0.504354 0.000000 -0.348050
v -0.254354 0.000000 -0.348050
v -0.004354 0.000000 -0.348050
v -0.254354 0.659126 0.316937
v -0.004354 0.659126 0.316937
v 0.245646 0.659126 0.316937
v 0.495646 0.659126 0.316937
v 0.745646 0.659126 0.316937
v -0.504354 0.250000 0.316937
v -0.504354 0.500000 0.316937
v -0.254354 0.250000 0.316937
v -0.254354 0.500000 0.316937
v -0.004354 0.250000 0.316937
v -0.004354 0.500000 0.316937
v 0.245646 0.250000 0.316937
v 0.245646 0.500000 0.316937
v 0.495646 0.250000 0.316937
v 0.495646 0.500000 0.316937
v 0.745646 0.250000 0.316937
v 0.745646 0.500000 0.316937
v 0.745646 -0.000000 0.151950
v 0.745646 0.000000 -0.098050
v 0.745646 -0.000000 0.316937
v -0.504354 -0.000000 0.316937
v -0.254354 -0.000000 0.316937
v -0.004354 -0.000000 0.316937
v 0.245646 -0.000000 0.316937
v 0.495646 -0.000000 0.316937
v 0.495646 0.000000 -0.098050
v 0.495646 -0.000000 0.151950
v 0.245646 -0.000000 0.151950
v 0.245646 0.000000 -0.098050
v -0.004354 0.000000 -0.098050
v -0.004354 -0.000000 0.151950
v -0.254354 -0.000000 0.151950
v -0.254354 0.000000 -0.098050
v -0.504354 -0.000000 0.151950
v -0.504354 0.000000 -0.098050
vt 0.004830 0.295850
vt 0.004830 0.266310
vt 0.086452 0.266310
vt 0.086452 0.295850
vt 0.963711 0.280951
vt 0.996842 0.280951
vt 0.996842 0.335729
vt 0.982482 0.338287
vt 0.972569 0.151153
vt 0.999192 0.151153
vt 0.953265 -0.000488
vt 0.999192 -0.000488
vt 0.999192 0.118812
vt 0.883673 -0.000488
vt 0.901903 0.151154
vt 0.832311 -0.000488
vt 0.838053 0.144694
vt 0.424323 0.284424
vt 0.500209 0.284424
vt 0.500209 0.423318
vt 0.424323 0.423318
vt 0.339322 0.284424
vt 0.339322 0.423318
vt 0.254322 0.284424
vt 0.254322 0.423318
vt 0.169321 0.284424
vt 0.169321 0.423318
vt 0.084321 0.284424
vt 0.084321 0.423318
vt -0.000679 0.284424
vt -0.000679 0.423318
vt 0.424323 0.144930
vt 0.500209 0.144930
vt 0.500209 0.267550
vt 0.424323 0.267550
vt 0.339322 0.144930
vt 0.339322 0.267550
vt 0.254322 0.144930
vt 0.254322 0.267550
vt 0.169321 0.144930
vt 0.169321 0.267550
vt 0.084321 0.144930
vt 0.084321 0.267550
vt -0.000679 0.144930
vt -0.000679 0.267550
vt 0.081616 0.304038
vt -0.001719 0.304038
vt -0.001719 0.158665
vt 0.081616 0.158665
vt 0.164950 0.304038
vt 0.164950 0.158665
vt 0.248285 0.304038
vt 0.248285 0.158665
vt 0.331620 0.304038
vt 0.331620 0.158665
vt 0.414954 0.304038
vt 0.414954 0.158665
vt 0.498289 0.304038
vt 0.498289 0.158665
vt 0.081616 0.417843
vt -0.001719 0.417843
vt 0.164950 0.417843
vt 0.248285 0.417843
vt 0.331620 0.417843
vt 0.414954 0.417843
vt 0.498289 0.417843
vt 0.114422 0.002754
vt 0.225640 0.002754
vt 0.225072 0.145120
vt 0.113257 0.145120
vt 0.000104 0.002754
vt 0.000409 0.145120
vt 0.559293 0.002754
vt 0.670511 0.002754
vt 0.670263 0.145120
vt 0.560516 0.145120
vt 0.448075 0.002754
vt 0.448701 0.145120
vt 0.336858 0.002754
vt 0.336886 0.145120
vt 0.168074 0.266310
vt 0.168074 0.295850
vt 0.249696 0.266310
vt 0.249696 0.295850
vt 0.331318 0.266310
vt 0.331318 0.295850
vt 0.412940 0.266310
vt 0.412940 0.295850
vt 0.494562 0.266310
vt 0.494562 0.295850
vt 0.840645 0.533031
vt 0.890847 0.533031
vt 0.890847 0.619092
vt 0.840645 0.619092
vt 0.941049 0.533031
vt 0.941049 0.619092
vt 0.890847 0.673870
vt 0.840645 0.673870
vt 0.941049 0.673870
vt 0.991251 0.533031
vt 0.991251 0.619092
vt 0.896974 0.533031
vt 0.896974 0.619092
vt 0.991251 0.673870
vt 0.896974 0.673870
vt 0.947176 0.533031
vt 0.947176 0.619092
vt 0.997378 0.533031
vt 0.997378 0.619092
vt 0.947176 0.673870
vt 0.997378 0.673870
vt 0.833199 0.163858
vt 0.852404 0.163858
vt 0.866330 0.249919
vt 0.833199 0.249919
vt 0.847558 0.307255
vt 0.833199 0.304697
vt 0.866330 0.001617
vt 0.916531 0.001617
vt 0.947535 0.163858
vt 0.997737 0.001617
vt 0.997737 0.151084
vt 0.833199 0.001617
vt 0.840645 0.446971
vt 0.890847 0.446971
vt 0.941049 0.446971
vt 0.991251 0.446971
vt 0.896974 0.446971
vt 0.947176 0.446971
vt 0.997378 0.446971
vt 0.000000 0.000000
vt 0.000000 0.000000
vt 0.000000 0.000000
vt 0.000000 0.000000
vt 0.000000 0.000000
vt 0.000000 0.000000
vt 0.000000 0.000000
vt 0.000000 0.000000
vt 0.000000 0.000000
vt 0.000000 0.000000
vt 0.000000 0.000000
vt 0.000000 0.000000
vt 0.000000 0.000000
vt 0.000000 0.000000
vt 0.000000 0.000000
vt 0.000000 0.000000
vt 0.000000 0.000000
vt 0.000000 0.000000
vt 0.000000 0.000000
vt 0.000000 0.000000
vt 0.000000 0.000000
vt 0.000000 0.000000
vt 0.000000 0.000000
vt 0.000000 0.000000
vt 0.000000 0.000000
vt 0.000000 0.000000
vt 0.000000 0.000000
vt 0.000000 0.000000
vn 0.0000 0.9946 0.1034
vn -1.0000 0.0000 0.0000
vn 0.0000 0.4894 -0.8720
vn 0.0000 -0.2673 -0.9636
vn 0.0000 1.0000 0.0000
vn 0.0000 0.9892 -0.1468
vn 0.0000 0.0000 -1.0000
vn 0.0000 -0.0000 1.0000
vn 1.0000 -0.0000 0.0000
vn 0.0000 -1.0000 -0.0000
usemtl Material.001
s 1
f 1/1/1 2/2/1 3/3/1 4/4/1
f 5/5/2 6/6/2 2/7/2 1/8/2
f 7/9/2 8/10/2 6/6/2 5/5/2
f 9/11/2 10/12/2 8/13/2 7/9/2
f 11/14/2 9/11/2 7/9/2 12/15/2
f 13/16/2 11/14/2 12/15/2 14/17/2
f 15/18/3 5/19/3 1/20/3 4/21/3
f 16/22/3 15/18/3 4/21/3 17/23/3
f 18/24/3 16/22/3 17/23/3 19/25/3
f 20/26/3 18/24/3 19/25/3 21/27/3
f 22/28/3 20/26/3 21/27/3 23/29/3
f 24/30/3 22/28/3 23/29/3 25/31/3
f 26/32/4 7/33/4 5/34/4 15/35/4
f 27/36/4 26/32/4 15/35/4 16/37/4
f 28/38/4 27/36/4 16/37/4 18/39/4
f 29/40/4 28/38/4 18/39/4 20/41/4
f 30/42/4 29/40/4 20/41/4 22/43/4
f 31/44/4 30/42/4 22/43/4 24/45/4
f 32/46/5 12/47/5 7/48/5 26/49/5
f 33/50/5 32/46/5 26/49/5 27/51/5
f 34/52/5 33/50/5 27/51/5 28/53/5
f 35/54/5 34/52/5 28/53/5 29/55/5
f 36/56/5 35/54/5 29/55/5 30/57/5
f 37/58/5 36/56/5 30/57/5 31/59/5
f 38/60/6 14/61/6 12/47/6 32/46/6
f 39/62/6 38/60/6 32/46/6 33/50/6
f 40/63/6 39/62/6 33/50/6 34/52/6
f 41/64/6 40/63/6 34/52/6 35/54/6
f 42/65/6 41/64/6 35/54/6 36/56/6
f 43/66/6 42/65/6 36/56/6 37/58/6
f 44/67/7 45/68/7 41/69/7 42/70/7
f 46/71/7 44/67/7 42/70/7 43/72/7
f 47/73/7 13/74/7 14/75/7 38/76/7
f 48/77/7 47/73/7 38/76/7 39/78/7
f 49/79/7 48/77/7 39/78/7 40/80/7
f 45/68/7 49/79/7 40/80/7 41/69/7
f 4/4/1 3/3/1 50/81/1 17/82/1
f 17/82/1 50/81/1 51/83/1 19/84/1
f 19/84/1 51/83/1 52/85/1 21/86/1
f 21/86/1 52/85/1 53/87/1 23/88/1
f 23/88/1 53/87/1 54/89/1 25/90/1
f 8/91/8 55/92/8 56/93/8 6/94/8
f 55/92/8 57/95/8 58/96/8 56/93/8
f 6/94/8 56/93/8 3/97/8 2/98/8
f 56/93/8 58/96/8 50/99/8 3/97/8
f 57/95/8 59/100/8 60/101/8 58/96/8
f 59/100/8 61/102/8 62/103/8 60/101/8
f 58/96/8 60/101/8 51/104/8 50/99/8
f 60/101/8 62/103/8 52/105/8 51/104/8
f 61/102/8 63/106/8 64/107/8 62/103/8
f 63/106/8 65/108/8 66/109/8 64/107/8
f 62/103/8 64/107/8 53/110/8 52/105/8
f 64/107/8 66/109/8 54/111/8 53/110/8
f 65/112/9 31/113/9 24/114/9 66/115/9
f 66/115/9 24/114/9 25/116/9 54/117/9
f 67/118/9 68/119/9 37/120/9 31/113/9
f 68/119/9 46/121/9 43/122/9 37/120/9
f 69/123/9 67/118/9 31/113/9 65/112/9
f 10/124/8 70/125/8 55/92/8 8/91/8
f 70/125/8 71/126/8 57/95/8 55/92/8
f 71/126/8 72/127/8 59/100/8 57/95/8
f 72/127/8 73/128/8 61/102/8 59/100/8
f 73/128/8 74/129/8 63/106/8 61/102/8
f 74/129/8 69/130/8 65/108/8 63/106/8
f 68/131/10 75/132/10 44/133/10 46/134/10
f 67/135/10 76/136/10 75/132/10 68/131/10
f 69/137/10 74/138/10 76/136/10 67/135/10
f 74/138/10 73/139/10 77/140/10 76/136/10
f 76/136/10 77/140/10 78/141/10 75/132/10
f 75/132/10 78/141/10 45/142/10 44/133/10
f 78/141/10 79/143/10 49/144/10 45/142/10
f 77/140/10 80/145/10 79/143/10 78/141/10
f 73/139/10 72/146/10 80/145/10 77/140/10
f 80/145/10 81/147/10 82/148/10 79/143/10
f 79/143/10 82/148/10 48/149/10 49/144/10
f 72/146/10 71/150/10 81/147/10 80/145/10
f 71/150/10 70/151/10 83/152/10 81/147/10
f 81/147/10 83/152/10 84/153/10 82/148/10
f 82/148/10 84/153/10 47/154/10 48/149/10
f 84/153/10 11/155/10 13/156/10 47/154/10
f 83/152/10 9/157/10 11/155/10 84/153/10
f 70/151/10 10/158/10 9/157/10 83/152/10
