# Blender v2.82 (sub 7) OBJ File: 'TerminalModel_H1.blend'
# www.blender.org
mtllib TerminalModel_H1.mtl
o Cube.001
v 0.250000 0.000000 0.000000
v 0.000000 0.000000 0.000000
v 0.000000 0.250000 0.000000
v 0.250000 0.250000 0.000000
v 0.000000 0.500000 0.500000
v 0.250000 0.500000 0.500000
v 0.250000 0.750000 0.500000
v 0.000000 0.750000 0.500000
v 0.000000 -0.000000 0.250000
v -0.250000 -0.000000 0.250000
v -0.250000 0.000000 0.000000
v 0.250000 -0.000000 0.250000
v 0.250000 0.250000 0.250000
v -0.250000 0.250000 0.000000
v -0.250000 0.500000 0.080464
v -0.250000 0.753306 0.145039
v -0.216176 0.759967 0.115663
v -0.216176 0.540932 0.059825
v 0.250000 1.000000 0.500000
v 0.000000 1.000000 0.500000
v 0.000000 0.250000 0.500000
v 0.250000 0.250000 0.500000
v 0.000000 0.540932 0.059825
v -0.216176 0.524589 0.126589
v 0.000000 0.524589 0.126589
v 0.216176 0.540932 0.059825
v 0.216176 0.524589 0.126589
v -0.250000 0.250000 0.500000
v -0.250000 0.500000 0.500000
v -0.250000 0.500000 0.250000
v -0.250000 0.750000 0.250000
v 0.216176 0.970426 0.165054
v 0.216176 0.759967 0.115663
v 0.216176 0.743625 0.182427
v 0.216176 0.954083 0.231818
v -0.250000 0.750000 0.500000
v -0.250000 0.996694 0.202157
v 0.000000 0.996694 0.202157
v 0.000000 0.970426 0.165054
v -0.216176 0.970426 0.165054
v 0.250000 0.753306 0.145039
v 0.250000 0.500000 0.080464
v 0.250000 -0.000000 0.500000
v 0.000000 -0.000000 0.500000
v -0.250000 -0.000000 0.500000
v 0.250000 0.500000 0.250000
v 0.250000 0.750000 0.250000
v -0.250000 1.000000 0.500000
v -0.250000 1.000000 0.250000
v 0.250000 0.996694 0.202157
v 0.250000 1.000000 0.250000
v -0.250000 0.250000 0.250000
v 0.000000 1.000000 0.250000
v 0.000000 0.500000 0.080464
v -0.216176 0.743625 0.182427
v 0.000000 0.954083 0.231818
v -0.216176 0.954083 0.231818
vt 0.505303 0.792204
vt 0.745703 0.792204
vt 0.745703 1.001910
vt 0.505303 1.001910
vt 0.666415 0.470750
vt 0.680217 0.470750
vt 0.680217 0.493860
vt 0.666415 0.493860
vt 0.666415 0.470750
vt 0.680217 0.470750
vt 0.680217 0.493860
vt 0.666415 0.493860
vt 0.372230 0.110644
vt 0.386032 0.110644
vt 0.386032 0.133754
vt 0.372230 0.133754
vt 0.649132 0.465189
vt 0.662934 0.465189
vt 0.662934 0.488299
vt 0.649132 0.488299
vt 0.671337 0.569181
vt 0.671337 0.592291
vt 0.671337 0.592291
vt 0.671337 0.569181
vt 0.666415 0.470750
vt 0.680217 0.470750
vt 0.680217 0.493860
vt 0.666415 0.493860
vt 0.666415 0.470750
vt 0.680217 0.470750
vt 0.680217 0.493860
vt 0.666415 0.493860
vt 0.580331 0.488299
vt 0.594133 0.488299
vt 0.594133 0.488299
vt 0.580331 0.488299
vt 0.566442 0.488299
vt 0.580244 0.488299
vt 0.580244 0.488299
vt 0.566442 0.488299
vt 0.666415 0.470750
vt 0.680217 0.470750
vt 0.680217 0.493860
vt 0.666415 0.493860
vt 0.666415 0.470750
vt 0.680217 0.470750
vt 0.680217 0.493860
vt 0.666415 0.493860
vt 0.596551 0.615915
vt 0.596551 0.592805
vt 0.596551 0.592805
vt 0.596551 0.615915
vt 0.666415 0.470750
vt 0.680217 0.470750
vt 0.680217 0.493860
vt 0.666415 0.493860
vt 0.685139 0.569181
vt 0.671337 0.569181
vt 0.671337 0.569181
vt 0.685139 0.569181
vt 0.685139 0.592291
vt 0.685139 0.569181
vt 0.685139 0.569181
vt 0.685139 0.592291
vt 0.666415 0.470750
vt 0.680217 0.470750
vt 0.680217 0.493860
vt 0.666415 0.493860
vt 0.666415 0.470750
vt 0.680217 0.470750
vt 0.680217 0.493860
vt 0.666415 0.493860
vt 0.372230 0.110644
vt 0.386032 0.110644
vt 0.386032 0.133754
vt 0.372230 0.133754
vt 0.510649 0.644141
vt 0.524451 0.644141
vt 0.524451 0.667251
vt 0.510649 0.667251
vt 0.666415 0.470750
vt 0.680217 0.470750
vt 0.680217 0.493860
vt 0.666415 0.493860
vt 0.666415 0.470750
vt 0.680217 0.470750
vt 0.680217 0.493860
vt 0.666415 0.493860
vt 0.510649 0.644141
vt 0.524451 0.644141
vt 0.524451 0.667251
vt 0.510649 0.667251
vt 0.435102 0.112460
vt 0.448904 0.112460
vt 0.448904 0.135570
vt 0.435102 0.135570
vt 0.395729 0.096711
vt 0.409531 0.096711
vt 0.409531 0.119821
vt 0.395729 0.119821
vt 0.596551 0.615915
vt 0.596551 0.592805
vt 0.596551 0.592805
vt 0.596551 0.615915
vt 0.395729 0.096711
vt 0.409531 0.096711
vt 0.409531 0.119821
vt 0.395729 0.119821
vt 0.666415 0.470750
vt 0.680217 0.470750
vt 0.680217 0.493860
vt 0.666415 0.493860
vt 0.666415 0.470750
vt 0.680217 0.470750
vt 0.680217 0.493860
vt 0.666415 0.493860
vt 0.510649 0.644141
vt 0.524451 0.644141
vt 0.524451 0.667251
vt 0.510649 0.667251
vt 0.666415 0.470750
vt 0.680217 0.470750
vt 0.680217 0.493860
vt 0.666415 0.493860
vt 0.666415 0.470750
vt 0.680217 0.470750
vt 0.680217 0.493860
vt 0.666415 0.493860
vt 0.671337 0.569181
vt 0.671337 0.592291
vt 0.671337 0.592291
vt 0.671337 0.569181
vt 0.435102 0.112460
vt 0.448904 0.112460
vt 0.448904 0.135570
vt 0.435102 0.135570
vt 0.378504 0.163644
vt 0.392306 0.163644
vt 0.392306 0.186754
vt 0.378504 0.186754
vt 0.666415 0.470750
vt 0.680217 0.470750
vt 0.680217 0.493860
vt 0.666415 0.493860
vt 0.685139 0.592291
vt 0.685139 0.569181
vt 0.685139 0.569181
vt 0.685139 0.592291
vt 0.510649 0.644141
vt 0.524451 0.644141
vt 0.524451 0.667251
vt 0.510649 0.667251
vt 0.747601 0.704344
vt 0.874053 0.704344
vt 0.874053 0.788207
vt 0.747601 0.788207
vt 0.510649 0.644141
vt 0.524451 0.644141
vt 0.524451 0.667251
vt 0.510649 0.667251
vt 0.378504 0.163644
vt 0.392306 0.163644
vt 0.392306 0.186754
vt 0.378504 0.186754
vt 0.833748 0.580993
vt 0.847551 0.580993
vt 0.847551 0.604103
vt 0.833748 0.604103
vt 0.510649 0.644141
vt 0.524451 0.644141
vt 0.524451 0.667251
vt 0.510649 0.667251
vt 0.833748 0.580993
vt 0.847551 0.580993
vt 0.847551 0.604103
vt 0.833748 0.604103
vt 0.874210 0.704344
vt 0.995780 0.704344
vt 0.995780 0.788207
vt 0.874210 0.788207
vt 0.659952 0.488299
vt 0.673754 0.488299
vt 0.673754 0.488299
vt 0.659952 0.488299
vt 0.685139 0.569181
vt 0.671337 0.569181
vt 0.671337 0.569181
vt 0.685139 0.569181
vt 0.687643 0.488299
vt 0.687643 0.488299
vt 0.582749 0.592805
vt 0.582749 0.615915
vt 0.582749 0.615915
vt 0.582749 0.592805
vt 0.596551 0.592805
vt 0.582749 0.592805
vt 0.582749 0.592805
vt 0.596551 0.592805
vt 0.582749 0.592805
vt 0.582749 0.615915
vt 0.582749 0.615915
vt 0.582749 0.592805
vt 0.596551 0.592805
vt 0.582749 0.592805
vt 0.582749 0.592805
vt 0.596551 0.592805
vn 0.0000 0.0000 -1.0000
vn 0.0000 -0.0000 1.0000
vn 0.0000 -1.0000 -0.0000
vn 1.0000 0.0000 0.0000
vn -0.6649 0.1845 -0.7238
vn 0.0000 0.9713 0.2378
vn -1.0000 -0.0000 0.0000
vn 0.0000 0.8162 -0.5778
vn 0.6649 0.1845 -0.7238
vn -0.6650 0.1706 -0.7271
vn 0.0000 0.9976 -0.0689
vn 0.6650 0.1706 -0.7271
vn 0.0000 0.3064 -0.9519
vn 0.0000 1.0000 0.0000
vn 0.0000 -0.4502 -0.8929
vn 0.0000 -0.9713 -0.2378
usemtl Material.001
s 1
f 1/1/1 2/2/1 3/3/1 4/4/1
f 5/5/2 6/6/2 7/7/2 8/8/2
f 9/9/3 10/10/3 11/11/3 2/12/3
f 12/13/4 1/14/4 4/15/4 13/16/4
f 2/17/1 11/18/1 14/19/1 3/20/1
f 15/21/5 16/22/5 17/23/5 18/24/5
f 8/25/2 7/26/2 19/27/2 20/28/2
f 21/29/2 22/30/2 6/31/2 5/32/2
f 23/33/6 18/34/6 24/35/6 25/36/6
f 26/37/6 23/38/6 25/39/6 27/40/6
f 28/41/2 21/42/2 5/43/2 29/44/2
f 15/45/7 30/46/7 31/47/7 16/48/7
f 32/49/7 33/50/7 34/51/7 35/52/7
f 29/53/2 5/54/2 8/55/2 36/56/2
f 37/57/8 38/58/8 39/59/8 40/60/8
f 41/61/9 42/62/9 26/63/9 33/64/9
f 43/65/3 44/66/3 9/67/3 12/68/3
f 44/69/3 45/70/3 10/71/3 9/72/3
f 43/73/4 12/74/4 13/75/4 22/76/4
f 6/77/4 46/78/4 47/79/4 7/80/4
f 31/81/7 36/82/7 48/83/7 49/84/7
f 30/85/7 29/86/7 36/87/7 31/88/7
f 47/89/4 41/90/4 50/91/4 51/92/4
f 44/93/2 43/94/2 22/95/2 21/96/2
f 11/97/7 10/98/7 52/99/7 14/100/7
f 33/101/7 26/102/7 27/103/7 34/104/7
f 10/105/7 45/106/7 28/107/7 52/108/7
f 14/109/7 52/110/7 30/111/7 15/112/7
f 52/113/7 28/114/7 29/115/7 30/116/7
f 13/117/4 4/118/4 42/119/4 46/120/4
f 12/121/3 9/122/3 2/123/3 1/124/3
f 36/125/2 8/126/2 20/127/2 48/128/2
f 16/129/10 37/130/10 40/131/10 17/132/10
f 45/133/2 44/134/2 21/135/2 28/136/2
f 38/137/11 37/138/11 49/139/11 53/140/11
f 16/141/7 31/142/7 49/143/7 37/144/7
f 50/145/12 41/146/12 33/147/12 32/148/12
f 22/149/4 13/150/4 46/151/4 6/152/4
f 4/153/13 3/154/13 54/155/13 42/156/13
f 46/157/4 42/158/4 41/159/4 47/160/4
f 50/161/11 38/162/11 53/163/11 51/164/11
f 53/165/14 49/166/14 48/167/14 20/168/14
f 7/169/4 47/170/4 51/171/4 19/172/4
f 51/173/14 53/174/14 20/175/14 19/176/14
f 3/177/13 14/178/13 15/179/13 54/180/13
f 42/181/15 54/182/15 23/183/15 26/184/15
f 38/185/8 50/186/8 32/187/8 39/188/8
f 54/182/15 15/189/15 18/190/15 23/183/15
f 18/191/4 17/192/4 55/193/4 24/194/4
f 40/195/16 39/196/16 56/197/16 57/198/16
f 17/199/4 40/200/4 57/201/4 55/202/4
f 39/203/16 32/204/16 35/205/16 56/206/16
