# Blender v2.82 (sub 7) OBJ File: 'VendingMachine_L2.blend'
# www.blender.org
mtllib VendingMachine_L2.mtl
o Cube.001
v 0.250000 1.250000 0.500000
v 0.500000 1.250000 0.500000
v 0.440299 1.500000 0.470150
v 0.220150 1.500000 0.470150
v 0.000000 1.250000 0.500000
v 0.000000 1.500000 0.470150
v 0.250000 1.000000 0.500000
v 0.500000 1.000000 0.500000
v 0.000000 1.000000 0.500000
v 0.250000 0.750000 0.500000
v 0.500000 0.750000 0.500000
v 0.000000 0.750000 0.500000
v 0.250000 0.500000 0.500000
v 0.500000 0.500000 0.500000
v 0.000000 0.500000 0.500000
v 0.250000 0.250000 0.500000
v 0.500000 0.250000 0.500000
v 0.000000 0.250000 0.500000
v 0.250000 -0.000000 0.500000
v 0.500000 -0.000000 0.500000
v 0.000000 -0.000000 0.500000
v -0.250000 1.250000 0.500000
v -0.220150 1.500000 0.470150
v -0.500000 1.250000 0.500000
v -0.440299 1.500000 0.470150
v -0.250000 1.000000 0.500000
v -0.500000 1.000000 0.500000
v -0.250000 0.750000 0.500000
v -0.500000 0.750000 0.500000
v -0.250000 0.500000 0.500000
v -0.500000 0.500000 0.500000
v -0.250000 0.250000 0.500000
v -0.500000 0.250000 0.500000
v -0.250000 -0.000000 0.500000
v -0.500000 -0.000000 0.500000
v -0.500000 1.250000 0.250000
v -0.500000 1.500000 0.250000
v -0.500000 1.250000 0.000000
v -0.440299 1.500000 0.121673
v -0.500000 1.000000 0.250000
v -0.500000 1.000000 0.000000
v -0.500000 0.750000 0.250000
v -0.500000 0.750000 0.000000
v -0.500000 0.500000 0.250000
v -0.500000 0.500000 -0.106811
v -0.500000 0.250000 0.250000
v -0.500000 0.250000 0.000000
v -0.500000 -0.000000 0.250000
v -0.500000 0.000000 0.000000
v 0.500000 1.250000 0.250000
v 0.500000 1.250000 0.000000
v 0.440299 1.500000 0.121673
v 0.500000 1.500000 0.250000
v 0.500000 1.000000 0.250000
v 0.500000 1.000000 0.000000
v 0.500000 0.750000 0.250000
v 0.500000 0.750000 0.000000
v 0.500000 0.500000 0.250000
v 0.500000 0.500000 -0.106811
v 0.500000 0.250000 0.250000
v 0.500000 0.250000 0.000000
v 0.500000 -0.000000 0.250000
v 0.500000 0.000000 0.000000
v -0.250000 -0.000000 0.250000
v 0.000000 -0.000000 0.250000
v 0.250000 -0.000000 0.250000
v -0.250000 0.000000 0.000000
v 0.000000 0.000000 0.000000
v 0.250000 0.000000 0.000000
v -0.250000 1.500000 0.250000
v 0.000000 1.500000 0.250000
v 0.250000 1.500000 0.250000
v -0.220150 1.500000 0.121673
v 0.000000 1.500000 0.121673
v 0.220150 1.500000 0.121673
v -0.250000 1.250000 0.000000
v 0.000000 1.250000 0.000000
v 0.250000 1.250000 0.000000
v -0.250000 1.000000 0.000000
v 0.000000 1.000000 0.000000
v 0.250000 1.000000 0.000000
v -0.250000 0.750000 0.000000
v 0.000000 0.750000 0.000000
v 0.250000 0.750000 0.000000
v -0.250000 0.500000 -0.106811
v 0.000000 0.500000 -0.106811
v 0.250000 0.500000 -0.106811
v -0.250000 0.250000 0.000000
v 0.000000 0.250000 0.000000
v 0.250000 0.250000 0.000000
vt 0.097179 0.604724
vt 0.083377 0.604724
vt 0.083377 0.627834
vt 0.097179 0.627834
vt 0.111068 0.604724
vt 0.097266 0.604724
vt 0.097266 0.627834
vt 0.111068 0.627834
vt 0.097179 0.581468
vt 0.083377 0.581468
vt 0.083377 0.604578
vt 0.097179 0.604578
vt 0.111068 0.581468
vt 0.097266 0.581468
vt 0.097266 0.604578
vt 0.111068 0.604578
vt 0.097179 0.558212
vt 0.083377 0.558212
vt 0.083377 0.581323
vt 0.097179 0.581323
vt 0.111068 0.558212
vt 0.097266 0.558212
vt 0.097266 0.581323
vt 0.111068 0.581323
vt 0.097179 0.534956
vt 0.083377 0.534956
vt 0.083377 0.558067
vt 0.097179 0.558067
vt 0.111068 0.534956
vt 0.097266 0.534956
vt 0.097266 0.558067
vt 0.111068 0.558067
vt 0.781363 0.804557
vt 0.873699 0.804557
vt 0.873699 0.897503
vt 0.781363 0.897503
vt 0.678090 0.804557
vt 0.678090 0.897503
vt 0.097179 0.534956
vt 0.083377 0.534956
vt 0.083377 0.558067
vt 0.097179 0.558067
vt 0.111068 0.534956
vt 0.097266 0.534956
vt 0.097266 0.558067
vt 0.111068 0.558067
vt 0.097266 0.604724
vt 0.097266 0.627834
vt 0.083377 0.604724
vt 0.097179 0.604724
vt 0.097179 0.627834
vt 0.083377 0.627834
vt 0.097266 0.581468
vt 0.097266 0.604578
vt 0.083377 0.581468
vt 0.097179 0.581468
vt 0.097179 0.604578
vt 0.083377 0.604578
vt 0.097266 0.558212
vt 0.097266 0.581323
vt 0.083377 0.558212
vt 0.097179 0.558212
vt 0.097179 0.581323
vt 0.083377 0.581323
vt 0.097266 0.534956
vt 0.097266 0.558067
vt 0.083377 0.534956
vt 0.097179 0.534956
vt 0.097179 0.558067
vt 0.083377 0.558067
vt 0.097266 0.558212
vt 0.111068 0.558212
vt 0.111068 0.581323
vt 0.097266 0.581323
vt 0.083377 0.558212
vt 0.097179 0.558212
vt 0.097179 0.581323
vt 0.083377 0.581323
vt 0.097266 0.534956
vt 0.097266 0.558067
vt 0.083377 0.534956
vt 0.097179 0.534956
vt 0.097179 0.558067
vt 0.083377 0.558067
vt 0.097179 0.604724
vt 0.097179 0.627834
vt 0.111068 0.604724
vt 0.097266 0.604724
vt 0.097266 0.627834
vt 0.111068 0.627834
vt 0.097179 0.581468
vt 0.097179 0.604578
vt 0.111068 0.581468
vt 0.097266 0.581468
vt 0.097266 0.604578
vt 0.111068 0.604578
vt 0.097179 0.558212
vt 0.097179 0.581323
vt 0.111068 0.558212
vt 0.097266 0.558212
vt 0.097266 0.581323
vt 0.111068 0.581323
vt 0.097179 0.534956
vt 0.097179 0.558067
vt 0.111068 0.534956
vt 0.097266 0.534956
vt 0.097266 0.558067
vt 0.111068 0.558067
vt 0.097179 0.534956
vt 0.083377 0.534956
vt 0.083377 0.558067
vt 0.097179 0.558067
vt 0.111068 0.534956
vt 0.097266 0.534956
vt 0.097266 0.558067
vt 0.111068 0.558067
vt 0.097179 0.534956
vt 0.097179 0.558067
vt 0.111068 0.534956
vt 0.097266 0.534956
vt 0.097266 0.558067
vt 0.111068 0.558067
vt 0.097266 0.604724
vt 0.111068 0.604724
vt 0.111068 0.627834
vt 0.097266 0.627834
vt 0.097179 0.604724
vt 0.097179 0.627834
vt 0.097266 0.581468
vt 0.111068 0.581468
vt 0.111068 0.604578
vt 0.097266 0.604578
vt 0.097179 0.581468
vt 0.097179 0.604578
vt 0.097266 0.558212
vt 0.111068 0.558212
vt 0.111068 0.581323
vt 0.097266 0.581323
vt 0.097179 0.558212
vt 0.097179 0.581323
vt 0.097266 0.534956
vt 0.111068 0.534956
vt 0.111068 0.558067
vt 0.097266 0.558067
vt 0.097179 0.534956
vt 0.097179 0.558067
vt 0.097266 0.558212
vt 0.111068 0.558212
vt 0.111068 0.581323
vt 0.097266 0.581323
vt 0.083377 0.558212
vt 0.097179 0.558212
vt 0.097179 0.581323
vt 0.083377 0.581323
vt 0.097266 0.534956
vt 0.111068 0.534956
vt 0.111068 0.558067
vt 0.097266 0.558067
vt 0.097179 0.534956
vt 0.097179 0.558067
vt 0.152821 0.604724
vt 0.166623 0.604724
vt 0.166623 0.627834
vt 0.152821 0.627834
vt 0.138932 0.604724
vt 0.152734 0.604724
vt 0.152734 0.627834
vt 0.138932 0.627834
vt 0.125043 0.604724
vt 0.138845 0.604724
vt 0.138845 0.627834
vt 0.125043 0.627834
vt 0.111155 0.604724
vt 0.111155 0.627834
vt 0.152821 0.581468
vt 0.166623 0.581468
vt 0.166623 0.604578
vt 0.152821 0.604578
vt 0.138932 0.581468
vt 0.152734 0.581468
vt 0.152734 0.604578
vt 0.138932 0.604578
vt 0.125043 0.581468
vt 0.138845 0.581468
vt 0.138845 0.604578
vt 0.125043 0.604578
vt 0.111155 0.581468
vt 0.111155 0.604578
vt 0.329167 0.701818
vt 0.241934 0.701818
vt 0.241603 0.620996
vt 0.342902 0.620996
vt 0.444202 0.701818
vt 0.444202 0.620996
vt 0.559237 0.701818
vt 0.545502 0.620996
vt 0.647680 0.701818
vt 0.646802 0.620996
vt 0.342902 0.780833
vt 0.241603 0.780833
vt 0.444202 0.780833
vt 0.545502 0.780833
vt 0.646802 0.780833
vt 0.555972 0.508269
vt 0.666123 0.508269
vt 0.665357 0.609907
vt 0.542820 0.609907
vt 0.445820 0.508269
vt 0.445820 0.609907
vt 0.335668 0.508269
vt 0.348821 0.609907
vt 0.225517 0.508269
vt 0.226283 0.609907
vt 0.555972 0.406631
vt 0.666123 0.406631
vt 0.445820 0.406631
vt 0.335668 0.406631
vt 0.225517 0.406631
vt 0.555972 0.304993
vt 0.666123 0.304993
vt 0.445820 0.304993
vt 0.335668 0.304993
vt 0.225517 0.304993
vt 0.555972 0.203355
vt 0.666123 0.203355
vt 0.445820 0.203355
vt 0.335668 0.203355
vt 0.225517 0.203355
vt 0.555972 0.101717
vt 0.666123 0.101717
vt 0.445820 0.101717
vt 0.335668 0.101717
vt 0.225517 0.101717
vt 0.555972 0.000080
vt 0.666123 0.000080
vt 0.445820 0.000080
vt 0.335668 0.000080
vt 0.225517 0.000080
vn 0.0000 0.1186 0.9929
vn 0.0000 -0.0000 1.0000
vn -0.9843 0.1250 0.1250
vn -0.9760 0.1540 -0.1540
vn -1.0000 0.0000 0.0000
vn 0.9760 0.1540 -0.1540
vn 0.9843 0.1250 0.1250
vn 1.0000 0.0000 0.0000
vn 0.0000 1.0000 0.0000
vn 0.0000 0.4376 -0.8992
vn 0.0000 0.0000 -1.0000
vn 0.0000 0.3929 -0.9196
vn 0.0000 -0.3929 -0.9196
usemtl Material.002
s 1
f 1/1/1 2/2/1 3/3/1 4/4/1
f 5/5/1 1/6/1 4/7/1 6/8/1
f 7/9/2 8/10/2 2/11/2 1/12/2
f 9/13/2 7/14/2 1/15/2 5/16/2
f 10/17/2 11/18/2 8/19/2 7/20/2
f 12/21/2 10/22/2 7/23/2 9/24/2
f 13/25/2 14/26/2 11/27/2 10/28/2
f 15/29/2 13/30/2 10/31/2 12/32/2
f 16/33/2 17/34/2 14/35/2 13/36/2
f 18/37/2 16/33/2 13/36/2 15/38/2
f 19/39/2 20/40/2 17/41/2 16/42/2
f 21/43/2 19/44/2 16/45/2 18/46/2
f 22/47/1 5/5/1 6/8/1 23/48/1
f 24/49/1 22/50/1 23/51/1 25/52/1
f 26/53/2 9/13/2 5/16/2 22/54/2
f 27/55/2 26/56/2 22/57/2 24/58/2
f 28/59/2 12/21/2 9/24/2 26/60/2
f 29/61/2 28/62/2 26/63/2 27/64/2
f 30/65/2 15/29/2 12/32/2 28/66/2
f 31/67/2 30/68/2 28/69/2 29/70/2
f 32/71/2 18/72/2 15/73/2 30/74/2
f 33/75/2 32/76/2 30/77/2 31/78/2
f 34/79/2 21/43/2 18/46/2 32/80/2
f 35/81/2 34/82/2 32/83/2 33/84/2
f 36/85/3 24/49/3 25/52/3 37/86/3
f 38/87/4 36/88/4 37/89/4 39/90/4
f 40/91/5 27/55/5 24/58/5 36/92/5
f 41/93/5 40/94/5 36/95/5 38/96/5
f 42/97/5 29/61/5 27/64/5 40/98/5
f 43/99/5 42/100/5 40/101/5 41/102/5
f 44/103/5 31/67/5 29/70/5 42/104/5
f 45/105/5 44/106/5 42/107/5 43/108/5
f 46/109/5 33/110/5 31/111/5 44/112/5
f 47/113/5 46/114/5 44/115/5 45/116/5
f 48/117/5 35/81/5 33/84/5 46/118/5
f 49/119/5 48/120/5 46/121/5 47/122/5
f 50/123/6 51/124/6 52/125/6 53/126/6
f 2/2/7 50/127/7 53/128/7 3/3/7
f 54/129/8 55/130/8 51/131/8 50/132/8
f 8/10/8 54/133/8 50/134/8 2/11/8
f 56/135/8 57/136/8 55/137/8 54/138/8
f 11/18/8 56/139/8 54/140/8 8/19/8
f 58/141/8 59/142/8 57/143/8 56/144/8
f 14/26/8 58/145/8 56/146/8 11/27/8
f 60/147/8 61/148/8 59/149/8 58/150/8
f 17/151/8 60/152/8 58/153/8 14/154/8
f 62/155/8 63/156/8 61/157/8 60/158/8
f 20/40/8 62/159/8 60/160/8 17/41/8
f 64/161/9 48/162/9 35/163/9 34/164/9
f 65/165/9 64/166/9 34/167/9 21/168/9
f 66/169/9 65/170/9 21/171/9 19/172/9
f 62/173/9 66/169/9 19/172/9 20/174/9
f 67/175/9 49/176/9 48/177/9 64/178/9
f 68/179/9 67/180/9 64/181/9 65/182/9
f 69/183/9 68/184/9 65/185/9 66/186/9
f 63/187/9 69/183/9 66/186/9 62/188/9
f 70/189/9 37/190/9 25/191/9 23/192/9
f 71/193/9 70/189/9 23/192/9 6/194/9
f 72/195/9 71/193/9 6/194/9 4/196/9
f 53/197/9 72/195/9 4/196/9 3/198/9
f 73/199/9 39/200/9 37/190/9 70/189/9
f 74/201/9 73/199/9 70/189/9 71/193/9
f 75/202/9 74/201/9 71/193/9 72/195/9
f 52/203/9 75/202/9 72/195/9 53/197/9
f 76/204/10 38/205/10 39/206/10 73/207/10
f 77/208/10 76/204/10 73/207/10 74/209/10
f 78/210/10 77/208/10 74/209/10 75/211/10
f 51/212/10 78/210/10 75/211/10 52/213/10
f 79/214/11 41/215/11 38/205/11 76/204/11
f 80/216/11 79/214/11 76/204/11 77/208/11
f 81/217/11 80/216/11 77/208/11 78/210/11
f 55/218/11 81/217/11 78/210/11 51/212/11
f 82/219/11 43/220/11 41/215/11 79/214/11
f 83/221/11 82/219/11 79/214/11 80/216/11
f 84/222/11 83/221/11 80/216/11 81/217/11
f 57/223/11 84/222/11 81/217/11 55/218/11
f 85/224/12 45/225/12 43/220/12 82/219/12
f 86/226/12 85/224/12 82/219/12 83/221/12
f 87/227/12 86/226/12 83/221/12 84/222/12
f 59/228/12 87/227/12 84/222/12 57/223/12
f 88/229/13 47/230/13 45/225/13 85/224/13
f 89/231/13 88/229/13 85/224/13 86/226/13
f 90/232/13 89/231/13 86/226/13 87/227/13
f 61/233/13 90/232/13 87/227/13 59/228/13
f 67/234/11 49/235/11 47/230/11 88/229/11
f 68/236/11 67/234/11 88/229/11 89/231/11
f 69/237/11 68/236/11 89/231/11 90/232/11
f 63/238/11 69/237/11 90/232/11 61/233/11
