# Blender v2.82 (sub 7) OBJ File: 'VendingMachine_L1.blend'
# www.blender.org
mtllib VendingMachine_L1.mtl
o Cube.001
v 0.500000 0.000000 0.000000
v 0.250000 0.000000 0.000000
v 0.250000 0.250000 0.000000
v 0.500000 0.250000 0.000000
v 0.000000 0.000000 0.000000
v 0.000000 0.250000 0.000000
v -0.250000 0.000000 0.000000
v -0.250000 0.250000 0.000000
v -0.500000 0.000000 0.000000
v -0.500000 0.250000 0.000000
v 0.250000 0.500000 0.000000
v 0.500000 0.500000 0.000000
v 0.000000 0.500000 0.000000
v -0.250000 0.500000 0.000000
v -0.500000 0.500000 0.000000
v 0.250000 0.750000 0.000000
v 0.500000 0.750000 0.000000
v 0.000000 0.750000 0.000000
v -0.250000 0.750000 0.000000
v -0.500000 0.750000 0.000000
v 0.250000 1.000000 0.000000
v 0.500000 1.000000 0.000000
v 0.000000 1.000000 0.000000
v -0.250000 1.000000 0.000000
v -0.500000 1.000000 0.000000
v 0.250000 1.250000 0.000000
v 0.500000 1.250000 0.000000
v 0.000000 1.250000 0.000000
v -0.250000 1.250000 0.000000
v -0.500000 1.250000 0.000000
v 0.250000 1.500000 0.000000
v 0.500000 1.500000 0.000000
v 0.000000 1.500000 0.000000
v -0.250000 1.500000 0.000000
v -0.500000 1.500000 0.000000
v 0.250000 1.500000 0.250000
v 0.500000 1.500000 0.250000
v 0.000000 1.500000 0.250000
v -0.250000 1.500000 0.250000
v -0.500000 1.500000 0.250000
v 0.250000 1.500000 0.500000
v 0.500000 1.500000 0.500000
v 0.000000 1.500000 0.500000
v -0.250000 1.500000 0.500000
v -0.500000 1.500000 0.500000
v -0.500000 0.750000 0.500000
v -0.250000 0.750000 0.500000
v -0.250000 1.000000 0.500000
v -0.500000 1.000000 0.500000
v 0.000000 0.750000 0.500000
v 0.000000 1.000000 0.500000
v -0.250000 1.250000 0.500000
v -0.500000 1.250000 0.500000
v 0.000000 1.250000 0.500000
v 0.250000 0.750000 0.500000
v 0.250000 1.000000 0.500000
v 0.500000 0.750000 0.500000
v 0.500000 1.000000 0.500000
v 0.250000 1.250000 0.500000
v 0.500000 1.250000 0.500000
v -0.500000 0.250000 0.500000
v -0.250000 0.250000 0.500000
v -0.250000 0.500000 0.500000
v -0.500000 0.500000 0.500000
v 0.000000 0.250000 0.500000
v 0.000000 0.500000 0.500000
v 0.250000 0.250000 0.500000
v 0.250000 0.500000 0.500000
v 0.500000 0.250000 0.500000
v 0.500000 0.500000 0.500000
v 0.000000 -0.000000 0.500000
v 0.250000 -0.000000 0.500000
v 0.500000 -0.000000 0.500000
v -0.250000 -0.000000 0.500000
v -0.500000 -0.000000 0.500000
v 0.500000 0.250000 0.250000
v 0.500000 0.500000 0.250000
v 0.500000 0.750000 0.250000
v 0.500000 1.000000 0.250000
v 0.500000 1.250000 0.250000
v 0.500000 -0.000000 0.250000
v -0.500000 1.250000 0.250000
v -0.500000 1.000000 0.250000
v -0.500000 0.750000 0.250000
v -0.500000 0.500000 0.250000
v -0.500000 0.250000 0.250000
v -0.500000 -0.000000 0.250000
v -0.250000 -0.000000 0.250000
v 0.000000 -0.000000 0.250000
v 0.250000 -0.000000 0.250000
vt 0.000000 0.000000
vt 0.000000 0.000000
vt 0.000000 0.000000
vt 0.000000 0.000000
vt 0.000000 0.000000
vt 0.000000 0.000000
vt 0.000000 0.000000
vt 0.000000 0.000000
vt 0.000000 0.000000
vt 0.000000 0.000000
vt 0.000000 0.000000
vt 0.000000 0.000000
vt 0.000000 0.000000
vt 0.000000 0.000000
vt 0.000000 0.000000
vt 0.000000 0.000000
vt 0.000000 0.000000
vt 0.000000 0.000000
vt 0.000000 0.000000
vt 0.000000 0.000000
vt 0.000000 0.000000
vt 0.000000 0.000000
vt 0.000000 0.000000
vt 0.000000 0.000000
vt 0.000000 0.000000
vt 0.000000 0.000000
vt 0.000000 0.000000
vt 0.000000 0.000000
vt 0.000000 0.000000
vt 0.000000 0.000000
vt 0.000000 0.000000
vt 0.000000 0.000000
vt 0.000000 0.000000
vt 0.000000 0.000000
vt 0.000000 0.000000
vt 0.653451 0.925107
vt 0.490087 0.925107
vt 0.490087 0.802583
vt 0.653451 0.802583
vt 0.326723 0.925107
vt 0.326723 0.802583
vt 0.163359 0.925107
vt 0.163359 0.802583
vt -0.000005 0.925107
vt -0.000005 0.802583
vt 0.490087 0.680060
vt 0.653451 0.680060
vt 0.326723 0.680060
vt 0.163359 0.680060
vt -0.000005 0.680060
vt 0.001151 0.337414
vt 0.167327 0.337414
vt 0.167327 0.452943
vt 0.001151 0.452943
vt 0.333504 0.337414
vt 0.333504 0.452943
vt 0.167327 0.568471
vt 0.001151 0.568471
vt 0.333504 0.568471
vt 0.167327 0.684000
vt 0.001151 0.684000
vt 0.333504 0.684000
vt 0.499681 0.337414
vt 0.499681 0.452943
vt 0.665858 0.337414
vt 0.665858 0.452943
vt 0.499681 0.568471
vt 0.665858 0.568471
vt 0.499681 0.684000
vt 0.665858 0.684000
vt 0.001151 0.106357
vt 0.167327 0.106357
vt 0.167327 0.221886
vt 0.001151 0.221886
vt 0.333504 0.106357
vt 0.333504 0.221886
vt 0.499681 0.106357
vt 0.499681 0.221886
vt 0.665858 0.106357
vt 0.665858 0.221886
vt 0.333504 -0.009172
vt 0.499681 -0.009172
vt 0.665858 -0.009172
vt 0.167327 -0.009172
vt 0.001151 -0.009172
vt 0.669163 0.333303
vt 0.832613 0.333303
vt 0.832613 0.376533
vt 0.669163 0.376533
vt 0.832613 0.528277
vt 0.669163 0.528277
vt 0.832613 0.680022
vt 0.669163 0.680022
vt 0.832613 0.831766
vt 0.669163 0.831766
vt 0.832613 0.983511
vt 0.669163 0.983510
vt 0.996063 0.333303
vt 0.996063 0.376533
vt 0.996063 0.528277
vt 0.996063 0.680022
vt 0.996063 0.831766
vt 0.996063 0.983511
vt 0.832613 0.220313
vt 0.996063 0.220313
vt 0.669163 0.220313
vt 0.838698 0.864219
vt 0.995424 0.863829
vt 0.996267 0.996716
vt 0.840196 0.997982
vt 0.679880 0.864613
vt 0.682050 0.999264
vt 0.837188 0.729338
vt 0.994574 0.729839
vt 0.835664 0.593326
vt 0.993717 0.594732
vt 0.834129 0.456168
vt 0.992852 0.458495
vt 0.832580 0.315389
vt 0.991980 0.314961
vt 0.671015 0.318234
vt 0.673259 0.453810
vt 0.675485 0.591900
vt 0.677692 0.728830
vt 0.831018 0.217752
vt 0.991101 0.217316
vt 0.668751 0.222141
vt 0.000000 0.000000
vt 0.000000 0.000000
vt 0.000000 0.000000
vt 0.000000 0.000000
vt 0.000000 0.000000
vt 0.000000 0.000000
vt 0.000000 0.000000
vt 0.000000 0.000000
vt 0.000000 0.000000
vt 0.000000 0.000000
vn 0.0000 0.0000 -1.0000
vn 0.0000 1.0000 0.0000
vn 0.0000 -0.0000 1.0000
vn 1.0000 0.0000 0.0000
vn -1.0000 -0.0000 0.0000
vn 0.0000 -1.0000 -0.0000
usemtl Material.001
s 1
f 1/1/1 2/2/1 3/3/1 4/4/1
f 2/2/1 5/5/1 6/6/1 3/3/1
f 5/5/1 7/7/1 8/8/1 6/6/1
f 7/7/1 9/9/1 10/10/1 8/8/1
f 4/4/1 3/3/1 11/11/1 12/12/1
f 3/3/1 6/6/1 13/13/1 11/11/1
f 6/6/1 8/8/1 14/14/1 13/13/1
f 8/8/1 10/10/1 15/15/1 14/14/1
f 12/12/1 11/11/1 16/16/1 17/17/1
f 11/11/1 13/13/1 18/18/1 16/16/1
f 13/13/1 14/14/1 19/19/1 18/18/1
f 14/14/1 15/15/1 20/20/1 19/19/1
f 17/17/1 16/16/1 21/21/1 22/22/1
f 16/16/1 18/18/1 23/23/1 21/21/1
f 18/18/1 19/19/1 24/24/1 23/23/1
f 19/19/1 20/20/1 25/25/1 24/24/1
f 22/22/1 21/21/1 26/26/1 27/27/1
f 21/21/1 23/23/1 28/28/1 26/26/1
f 23/23/1 24/24/1 29/29/1 28/28/1
f 24/24/1 25/25/1 30/30/1 29/29/1
f 27/27/1 26/26/1 31/31/1 32/32/1
f 26/26/1 28/28/1 33/33/1 31/31/1
f 28/28/1 29/29/1 34/34/1 33/33/1
f 29/29/1 30/30/1 35/35/1 34/34/1
f 32/36/2 31/37/2 36/38/2 37/39/2
f 31/37/2 33/40/2 38/41/2 36/38/2
f 33/40/2 34/42/2 39/43/2 38/41/2
f 34/42/2 35/44/2 40/45/2 39/43/2
f 37/39/2 36/38/2 41/46/2 42/47/2
f 36/38/2 38/41/2 43/48/2 41/46/2
f 38/41/2 39/43/2 44/49/2 43/48/2
f 39/43/2 40/45/2 45/50/2 44/49/2
f 46/51/3 47/52/3 48/53/3 49/54/3
f 47/52/3 50/55/3 51/56/3 48/53/3
f 49/54/3 48/53/3 52/57/3 53/58/3
f 48/53/3 51/56/3 54/59/3 52/57/3
f 53/58/3 52/57/3 44/60/3 45/61/3
f 52/57/3 54/59/3 43/62/3 44/60/3
f 50/55/3 55/63/3 56/64/3 51/56/3
f 55/63/3 57/65/3 58/66/3 56/64/3
f 51/56/3 56/64/3 59/67/3 54/59/3
f 56/64/3 58/66/3 60/68/3 59/67/3
f 54/59/3 59/67/3 41/69/3 43/62/3
f 59/67/3 60/68/3 42/70/3 41/69/3
f 61/71/3 62/72/3 63/73/3 64/74/3
f 62/72/3 65/75/3 66/76/3 63/73/3
f 64/74/3 63/73/3 47/52/3 46/51/3
f 63/73/3 66/76/3 50/55/3 47/52/3
f 65/75/3 67/77/3 68/78/3 66/76/3
f 67/77/3 69/79/3 70/80/3 68/78/3
f 66/76/3 68/78/3 55/63/3 50/55/3
f 68/78/3 70/80/3 57/65/3 55/63/3
f 71/81/3 72/82/3 67/77/3 65/75/3
f 72/82/3 73/83/3 69/79/3 67/77/3
f 74/84/3 71/81/3 65/75/3 62/72/3
f 75/85/3 74/84/3 62/72/3 61/71/3
f 69/86/4 76/87/4 77/88/4 70/89/4
f 70/89/4 77/88/4 78/90/4 57/91/4
f 57/91/4 78/90/4 79/92/4 58/93/4
f 58/93/4 79/92/4 80/94/4 60/95/4
f 60/95/4 80/94/4 37/96/4 42/97/4
f 76/87/4 4/98/4 12/99/4 77/88/4
f 77/88/4 12/99/4 17/100/4 78/90/4
f 78/90/4 17/100/4 22/101/4 79/92/4
f 79/92/4 22/101/4 27/102/4 80/94/4
f 80/94/4 27/102/4 32/103/4 37/96/4
f 81/104/4 1/105/4 4/98/4 76/87/4
f 73/106/4 81/104/4 76/87/4 69/86/4
f 82/107/5 53/108/5 45/109/5 40/110/5
f 30/111/5 82/107/5 40/110/5 35/112/5
f 83/113/5 49/114/5 53/108/5 82/107/5
f 84/115/5 46/116/5 49/114/5 83/113/5
f 85/117/5 64/118/5 46/116/5 84/115/5
f 86/119/5 61/120/5 64/118/5 85/117/5
f 10/121/5 86/119/5 85/117/5 15/122/5
f 15/122/5 85/117/5 84/115/5 20/123/5
f 20/123/5 84/115/5 83/113/5 25/124/5
f 25/124/5 83/113/5 82/107/5 30/111/5
f 87/125/5 75/126/5 61/120/5 86/119/5
f 9/127/5 87/125/5 86/119/5 10/121/5
f 88/128/6 87/129/6 9/9/6 7/7/6
f 74/130/6 75/131/6 87/129/6 88/128/6
f 89/132/6 88/128/6 7/7/6 5/5/6
f 71/133/6 74/130/6 88/128/6 89/132/6
f 72/134/6 71/133/6 89/132/6 90/135/6
f 90/135/6 89/132/6 5/5/6 2/2/6
f 81/136/6 90/135/6 2/2/6 1/1/6
f 73/137/6 72/134/6 90/135/6 81/136/6
